<svg width="134" height="24" viewBox="0 0 134 24" fill="none" xmlns="http://www.w3.org/2000/svg">
<path d="M25.1616 23.7289V10.7274H27.6302V12.7928H27.7668C28.006 12.093 28.4274 11.5429 29.031 11.1422C29.6403 10.7359 30.3294 10.5328 31.0982 10.5328C31.2576 10.5328 31.4455 10.5384 31.6619 10.5497C31.884 10.561 32.0577 10.5751 32.183 10.592V13.0129C32.0805 12.9846 31.8983 12.9536 31.6363 12.9197C31.3743 12.8802 31.1124 12.8605 30.8504 12.8605C30.2468 12.8605 29.7087 12.9875 29.236 13.2414C28.7691 13.4897 28.3989 13.8367 28.1256 14.2825C27.8523 14.7227 27.7156 15.2249 27.7156 15.7892V23.7289H25.1616Z" fill="white"/>
<path d="M39.5781 23.9913C38.2854 23.9913 37.1721 23.7176 36.2382 23.1702C35.31 22.6172 34.5925 21.8413 34.0857 20.8425C33.5846 19.838 33.334 18.6615 33.334 17.3128C33.334 15.9811 33.5846 14.8073 34.0857 13.7916C34.5925 12.7758 35.2986 11.983 36.2041 11.4131C37.1152 10.8431 38.1801 10.5582 39.3987 10.5582C40.139 10.5582 40.8565 10.6795 41.5513 10.9221C42.246 11.1648 42.8696 11.5457 43.422 12.0648C43.9743 12.584 44.41 13.2583 44.7289 14.0878C45.0478 14.9117 45.2072 15.9133 45.2072 17.0927V17.99H34.7776V16.0939H42.7044C42.7044 15.428 42.5678 14.8384 42.2944 14.3248C42.0211 13.8057 41.6367 13.3966 41.1413 13.0975C40.6515 12.7984 40.0764 12.6489 39.4158 12.6489C38.6983 12.6489 38.0719 12.8238 37.5366 13.1737C37.007 13.5179 36.597 13.9693 36.3066 14.528C36.0218 15.081 35.8795 15.682 35.8795 16.3309V17.8122C35.8795 18.6812 36.0332 19.4205 36.3407 20.0299C36.6539 20.6393 37.0896 21.1049 37.6476 21.4265C38.2057 21.7425 38.8577 21.9005 39.6037 21.9005C40.0878 21.9005 40.5291 21.8328 40.9277 21.6974C41.3263 21.5563 41.6709 21.3475 41.9613 21.071C42.2517 20.7945 42.4738 20.4531 42.6276 20.0468L45.0449 20.4785C44.8513 21.1839 44.5039 21.8018 44.0028 22.3322C43.5074 22.857 42.8838 23.2662 42.1321 23.5596C41.3861 23.8474 40.5348 23.9913 39.5781 23.9913Z" fill="white"/>
<path d="M57.8727 13.9016L55.5578 14.3079C55.461 14.0145 55.3073 13.7352 55.0966 13.4699C54.8916 13.2047 54.6125 12.9875 54.2595 12.8182C53.9064 12.6489 53.4651 12.5642 52.9355 12.5642C52.2123 12.5642 51.6086 12.7251 51.1246 13.0467C50.6405 13.3627 50.3985 13.7718 50.3985 14.2741C50.3985 14.7086 50.5608 15.0584 50.8854 15.3237C51.21 15.5889 51.7339 15.8061 52.4571 15.9754L54.5413 16.4494C55.7486 16.7259 56.6483 17.152 57.2406 17.7276C57.8328 18.3031 58.1289 19.0508 58.1289 19.9707C58.1289 20.7494 57.9011 21.4435 57.4456 22.0529C56.9957 22.6567 56.3664 23.1307 55.5578 23.4749C54.7549 23.8192 53.8238 23.9913 52.7646 23.9913C51.2954 23.9913 50.0967 23.6809 49.1685 23.0602C48.2403 22.4338 47.6708 21.545 47.4601 20.3939L49.9287 20.0214C50.0825 20.6591 50.3985 21.1416 50.8769 21.4689C51.3552 21.7905 51.9788 21.9513 52.7475 21.9513C53.5846 21.9513 54.2538 21.7792 54.7549 21.435C55.256 21.0851 55.5066 20.6591 55.5066 20.1569C55.5066 19.7506 55.3528 19.4092 55.0453 19.1327C54.7435 18.8562 54.2794 18.6474 53.653 18.5063L51.4321 18.0238C50.2078 17.7473 49.3023 17.3072 48.7158 16.7034C48.1349 16.0996 47.8445 15.3349 47.8445 14.4095C47.8445 13.642 48.0609 12.9705 48.4937 12.3949C48.9265 11.8194 49.5244 11.3707 50.2875 11.0491C51.0506 10.7218 51.9247 10.5582 52.9098 10.5582C54.3278 10.5582 55.4439 10.8629 56.2583 11.4723C57.0726 12.0761 57.6107 12.8859 57.8727 13.9016Z" fill="white"/>
<path d="M66.4637 23.9913C65.1938 23.9913 64.1004 23.7063 63.1836 23.1364C62.2724 22.5608 61.572 21.7679 61.0823 20.7578C60.5925 19.7478 60.3477 18.5909 60.3477 17.2874C60.3477 15.967 60.5982 14.8017 61.0994 13.7916C61.6005 12.7758 62.3066 11.983 63.2177 11.4131C64.1289 10.8431 65.2023 10.5582 66.438 10.5582C67.4346 10.5582 68.3229 10.7416 69.1031 11.1083C69.8833 11.4695 70.5125 11.9774 70.9908 12.632C71.4749 13.2865 71.7625 14.0512 71.8536 14.9258H69.3679C69.2312 14.3164 68.918 13.7916 68.4283 13.3514C67.9442 12.9113 67.2951 12.6912 66.4807 12.6912C65.7689 12.6912 65.1454 12.8774 64.6101 13.2499C64.0805 13.6167 63.6676 14.1414 63.3715 14.8242C63.0754 15.5014 62.9273 16.3027 62.9273 17.2282C62.9273 18.1762 63.0725 18.9944 63.363 19.6829C63.6534 20.3713 64.0634 20.9046 64.593 21.2826C65.1283 21.6607 65.7575 21.8498 66.4807 21.8498C66.9648 21.8498 67.4033 21.7623 67.7962 21.5874C68.1948 21.4068 68.5279 21.15 68.7956 20.8171C69.0689 20.4842 69.2597 20.0835 69.3679 19.6151H71.8536C71.7625 20.4559 71.4863 21.2065 71.025 21.8667C70.5638 22.5269 69.9459 23.0461 69.1714 23.4242C68.4027 23.8022 67.5001 23.9913 66.4637 23.9913Z" fill="white"/>
<path d="M74.5848 23.7289V10.7274H77.1389V23.7289H74.5848Z" fill="white"/>
<path d="M86.2296 23.9913C84.9369 23.9913 83.8236 23.7176 82.8897 23.1702C81.9615 22.6172 81.2439 21.8413 80.7371 20.8425C80.236 19.838 79.9854 18.6615 79.9854 17.3128C79.9854 15.9811 80.236 14.8073 80.7371 13.7916C81.2439 12.7758 81.9501 11.983 82.8555 11.4131C83.7666 10.8431 84.8315 10.5582 86.0502 10.5582C86.7905 10.5582 87.508 10.6795 88.2027 10.9221C88.8975 11.1648 89.521 11.5457 90.0734 12.0648C90.6258 12.584 91.0614 13.2583 91.3803 14.0878C91.6992 14.9117 91.8587 15.9133 91.8587 17.0927V17.99H81.429V16.0939H89.3559C89.3559 15.428 89.2192 14.8384 88.9459 14.3248C88.6725 13.8057 88.2881 13.3966 87.7927 13.0975C87.303 12.7984 86.7278 12.6489 86.0673 12.6489C85.3497 12.6489 84.7233 12.8238 84.188 13.1737C83.6585 13.5179 83.2484 13.9693 82.958 14.528C82.6733 15.081 82.5309 15.682 82.5309 16.3309V17.8122C82.5309 18.6812 82.6847 19.4205 82.9922 20.0299C83.3054 20.6393 83.741 21.1049 84.2991 21.4265C84.8572 21.7425 85.5092 21.9005 86.2552 21.9005C86.7392 21.9005 87.1805 21.8328 87.5792 21.6974C87.9778 21.5563 88.3223 21.3475 88.6127 21.071C88.9032 20.7945 89.1253 20.4531 89.279 20.0468L91.6964 20.4785C91.5027 21.1839 91.1554 21.8018 90.6542 22.3322C90.1588 22.857 89.5353 23.2662 88.7836 23.5596C88.0376 23.8474 87.1862 23.9913 86.2296 23.9913Z" fill="white"/>
<path d="M97.2464 16.0093V23.7289H94.6924V10.7274H97.1439V12.8436H97.3062C97.608 12.1551 98.0807 11.6021 98.7242 11.1845C99.3734 10.7669 100.191 10.5582 101.176 10.5582C102.07 10.5582 102.853 10.7444 103.525 11.1168C104.197 11.4836 104.718 12.031 105.088 12.7589C105.458 13.4869 105.643 14.3869 105.643 15.4591V23.7289H103.089V15.7638C103.089 14.8214 102.841 14.085 102.346 13.5546C101.851 13.0185 101.17 12.7505 100.304 12.7505C99.7122 12.7505 99.1854 12.8774 98.7242 13.1314C98.2686 13.3853 97.907 13.7577 97.6394 14.2487C97.3774 14.734 97.2464 15.3208 97.2464 16.0093Z" fill="white"/>
<path d="M114.595 23.9913C113.325 23.9913 112.232 23.7063 111.315 23.1364C110.404 22.5608 109.703 21.7679 109.214 20.7578C108.724 19.7478 108.479 18.5909 108.479 17.2874C108.479 15.967 108.73 14.8017 109.231 13.7916C109.732 12.7758 110.438 11.983 111.349 11.4131C112.26 10.8431 113.334 10.5582 114.569 10.5582C115.566 10.5582 116.454 10.7416 117.234 11.1083C118.015 11.4695 118.644 11.9774 119.122 12.632C119.606 13.2865 119.894 14.0512 119.985 14.9258H117.499C117.363 14.3164 117.049 13.7916 116.56 13.3514C116.076 12.9113 115.426 12.6912 114.612 12.6912C113.9 12.6912 113.277 12.8774 112.741 13.2499C112.212 13.6167 111.799 14.1414 111.503 14.8242C111.207 15.5014 111.059 16.3027 111.059 17.2282C111.059 18.1762 111.204 18.9944 111.494 19.6829C111.785 20.3713 112.195 20.9046 112.724 21.2826C113.26 21.6607 113.889 21.8498 114.612 21.8498C115.096 21.8498 115.535 21.7623 115.928 21.5874C116.326 21.4068 116.659 21.15 116.927 20.8171C117.2 20.4842 117.391 20.0835 117.499 19.6151H119.985C119.894 20.4559 119.618 21.2065 119.156 21.8667C118.695 22.5269 118.077 23.0461 117.303 23.4242C116.534 23.8022 115.631 23.9913 114.595 23.9913Z" fill="white"/>
<path d="M128.371 23.9913C127.078 23.9913 125.965 23.7176 125.031 23.1702C124.103 22.6172 123.385 21.8413 122.878 20.8425C122.377 19.838 122.127 18.6615 122.127 17.3128C122.127 15.9811 122.377 14.8073 122.878 13.7916C123.385 12.7758 124.091 11.983 124.997 11.4131C125.908 10.8431 126.973 10.5582 128.192 10.5582C128.932 10.5582 129.649 10.6795 130.344 10.9221C131.039 11.1648 131.662 11.5457 132.215 12.0648C132.767 12.584 133.203 13.2583 133.522 14.0878C133.841 14.9117 134 15.9133 134 17.0927V17.99H123.57V16.0939H131.497C131.497 15.428 131.361 14.8384 131.087 14.3248C130.814 13.8057 130.429 13.3966 129.934 13.0975C129.444 12.7984 128.869 12.6489 128.209 12.6489C127.491 12.6489 126.865 12.8238 126.329 13.1737C125.8 13.5179 125.39 13.9693 125.099 14.528C124.815 15.081 124.672 15.682 124.672 16.3309V17.8122C124.672 18.6812 124.826 19.4205 125.134 20.0299C125.447 20.6393 125.882 21.1049 126.44 21.4265C126.998 21.7425 127.651 21.9005 128.397 21.9005C128.881 21.9005 129.322 21.8328 129.721 21.6974C130.119 21.5563 130.464 21.3475 130.754 21.071C131.045 20.7945 131.267 20.4531 131.42 20.0468L133.838 20.4785C133.644 21.1839 133.297 21.8018 132.796 22.3322C132.3 22.857 131.677 23.2662 130.925 23.5596C130.179 23.8474 129.328 23.9913 128.371 23.9913Z" fill="white"/>
<path d="M28.4766 2.37643V6.17396H27.8284V2.9783H25.8097V6.17396H25.1616V2.37643H28.4766Z" fill="white"/>
<path d="M31.2633 6.21695C30.9077 6.21695 30.5881 6.13335 30.3046 5.96617C30.021 5.79898 29.7982 5.5697 29.6362 5.27831C29.4786 4.98215 29.3999 4.64778 29.3999 4.27519C29.3999 3.90261 29.4786 3.57062 29.6362 3.27924C29.7982 2.98308 30.021 2.7538 30.3046 2.59139C30.5881 2.4242 30.9077 2.34061 31.2633 2.34061C31.6189 2.34061 31.9362 2.4242 32.2153 2.59139C32.4988 2.7538 32.7194 2.98308 32.8769 3.27924C33.0389 3.57062 33.12 3.90261 33.12 4.27519C33.12 4.64778 33.0389 4.98215 32.8769 5.27831C32.7194 5.5697 32.4988 5.79898 32.2153 5.96617C31.9362 6.13335 31.6189 6.21695 31.2633 6.21695ZM31.2633 5.61507C31.4928 5.61507 31.6976 5.56014 31.8777 5.45028C32.0622 5.33563 32.2063 5.178 32.3098 4.97738C32.4133 4.77198 32.4651 4.53792 32.4651 4.27519C32.4651 4.01247 32.4133 3.7808 32.3098 3.58018C32.2063 3.37477 32.0622 3.21714 31.8777 3.10728C31.6976 2.99741 31.4928 2.94248 31.2633 2.94248C31.0337 2.94248 30.8267 2.99741 30.6422 3.10728C30.4621 3.21714 30.3181 3.37477 30.2101 3.58018C30.1065 3.7808 30.0548 4.01247 30.0548 4.27519C30.0548 4.53792 30.1065 4.77198 30.2101 4.97738C30.3181 5.178 30.4621 5.33563 30.6422 5.45028C30.8267 5.56014 31.0337 5.61507 31.2633 5.61507Z" fill="white"/>
<path d="M38.1811 2.37643V6.17396H37.5937V3.40105L36.2569 5.74405H35.9733L34.65 3.39388V6.17396H34.0559V2.37643H34.7243L36.1286 4.94155L37.5734 2.37643H38.1811Z" fill="white"/>
<path d="M40.9752 6.21695C40.6196 6.21695 40.3 6.13335 40.0165 5.96617C39.7329 5.79898 39.5101 5.5697 39.3481 5.27831C39.1905 4.98215 39.1118 4.64778 39.1118 4.27519C39.1118 3.90261 39.1905 3.57062 39.3481 3.27924C39.5101 2.98308 39.7329 2.7538 40.0165 2.59139C40.3 2.4242 40.6196 2.34061 40.9752 2.34061C41.3308 2.34061 41.6481 2.4242 41.9272 2.59139C42.2107 2.7538 42.4313 2.98308 42.5888 3.27924C42.7508 3.57062 42.8319 3.90261 42.8319 4.27519C42.8319 4.64778 42.7508 4.98215 42.5888 5.27831C42.4313 5.5697 42.2107 5.79898 41.9272 5.96617C41.6481 6.13335 41.3308 6.21695 40.9752 6.21695ZM40.9752 5.61507C41.2047 5.61507 41.4095 5.56014 41.5896 5.45028C41.7741 5.33563 41.9181 5.178 42.0217 4.97738C42.1252 4.77198 42.177 4.53792 42.177 4.27519C42.177 4.01247 42.1252 3.7808 42.0217 3.58018C41.9181 3.37477 41.7741 3.21714 41.5896 3.10728C41.4095 2.99741 41.2047 2.94248 40.9752 2.94248C40.7456 2.94248 40.5386 2.99741 40.354 3.10728C40.174 3.21714 40.03 3.37477 39.922 3.58018C39.8184 3.7808 39.7667 4.01247 39.7667 4.27519C39.7667 4.53792 39.8184 4.77198 39.922 4.97738C40.03 5.178 40.174 5.33563 40.354 5.45028C40.5386 5.56014 40.7456 5.61507 40.9752 5.61507Z" fill="white"/>
<path d="M46.4009 2.9783H44.4159V6.17396H43.7678V2.37643H46.4009V2.9783Z" fill="white"/>
<path d="M47.0644 2.37643H47.7126V5.14218L49.9068 2.37643H50.4942V6.17396H49.846V3.40821L47.6586 6.17396H47.0644V2.37643Z" fill="white"/>
<path d="M53.5654 2.37643H54.2135V3.98859H56.2525V2.37643H56.9006V6.17396H56.2525V4.58329H54.2135V6.17396H53.5654V2.37643Z" fill="white"/>
<path d="M59.4369 2.34061C59.932 2.34061 60.3101 2.46958 60.5712 2.72752C60.8368 2.98547 60.9695 3.37 60.9695 3.88111V6.17396H60.3551V5.6724C60.2471 5.84914 60.0918 5.98527 59.8893 6.08081C59.6912 6.17157 59.4549 6.21695 59.1804 6.21695C58.7798 6.21695 58.458 6.11425 58.2149 5.90884C57.9764 5.70344 57.8571 5.43356 57.8571 5.09918C57.8571 4.76481 57.9719 4.49731 58.2014 4.29669C58.431 4.09129 58.7955 3.98859 59.2952 3.98859H60.3214V3.85245C60.3214 3.55629 60.2404 3.3294 60.0783 3.17176C59.9163 3.01413 59.6777 2.93531 59.3627 2.93531C59.1511 2.93531 58.9441 2.97353 58.7415 3.04996C58.539 3.12161 58.3679 3.21953 58.2284 3.34373L57.9584 2.82784C58.1429 2.6702 58.3634 2.55078 58.62 2.46958C58.8766 2.3836 59.1489 2.34061 59.4369 2.34061ZM59.2884 5.68673C59.536 5.68673 59.7498 5.6294 59.9298 5.51476C60.1098 5.39534 60.2404 5.22816 60.3214 5.0132V4.48298H59.3222C58.773 4.48298 58.4985 4.67883 58.4985 5.07052C58.4985 5.26159 58.5682 5.41206 58.7078 5.52193C58.8473 5.63179 59.0408 5.68673 59.2884 5.68673Z" fill="white"/>
<path d="M65.3301 2.37643L63.595 6.55371C63.4419 6.94062 63.2619 7.2129 63.0549 7.37053C62.8523 7.52817 62.607 7.60698 62.3189 7.60698C62.1434 7.60698 61.9724 7.57593 61.8058 7.51384C61.6438 7.45651 61.5088 7.37053 61.4007 7.25589L61.6775 6.74C61.8621 6.92629 62.0759 7.01944 62.3189 7.01944C62.4765 7.01944 62.607 6.97406 62.7105 6.8833C62.8185 6.79732 62.9153 6.64685 63.0008 6.4319L63.1156 6.16679L61.5358 2.37643H62.2109L63.4599 5.41445L64.6955 2.37643H65.3301Z" fill="white"/>
<path d="M67.3845 4.56896H66.6419V6.17396H65.9937V2.37643H66.6419V3.98142H67.398L68.5593 2.37643H69.2547L67.8976 4.20354L69.3492 6.17396H68.5863L67.3845 4.56896Z" fill="white"/>
<path d="M73.1441 4.29669C73.1441 4.34923 73.1396 4.4185 73.1306 4.50448H70.2274C70.2679 4.83885 70.4052 5.10874 70.6393 5.31414C70.8778 5.51476 71.1726 5.61507 71.5237 5.61507C71.9513 5.61507 72.2956 5.46222 72.5567 5.15651L72.9145 5.60074C72.7525 5.80137 72.55 5.95422 72.3069 6.05931C72.0683 6.1644 71.8005 6.21695 71.5035 6.21695C71.1254 6.21695 70.7901 6.13574 70.4975 5.97333C70.2049 5.80614 69.9776 5.57447 69.8156 5.27831C69.6581 4.98215 69.5793 4.64778 69.5793 4.27519C69.5793 3.90738 69.6558 3.5754 69.8088 3.27924C69.9664 2.98308 70.1802 2.7538 70.4502 2.59139C70.7248 2.4242 71.0331 2.34061 71.3752 2.34061C71.7173 2.34061 72.0211 2.4242 72.2866 2.59139C72.5567 2.7538 72.766 2.98308 72.9145 3.27924C73.0676 3.5754 73.1441 3.91455 73.1441 4.29669ZM71.3752 2.92098C71.0646 2.92098 70.8036 3.02129 70.592 3.22192C70.385 3.42254 70.2634 3.68526 70.2274 4.01008H72.5229C72.4869 3.69004 72.3632 3.42971 72.1516 3.22908C71.9446 3.02368 71.6858 2.92098 71.3752 2.92098Z" fill="white"/>
<path fill-rule="evenodd" clip-rule="evenodd" d="M7.87882 3.27188H3.74028C3.09523 3.27188 2.57231 2.74118 2.57231 2.08654V1.18534C2.57231 0.530695 3.09523 0 3.74028 0H14.7583C15.4034 0 15.9263 0.530693 15.9263 1.18534V2.08654C15.9263 2.74118 15.4034 3.27188 14.7583 3.27188H10.537L10.6842 4.09977C11.6171 9.3454 13.8056 14.2781 17.0574 18.464L18.2835 20.0423C18.7555 20.6499 18.8574 21.4726 18.5483 22.1798L18.2987 22.7509C17.9691 23.5051 17.2326 23.9913 16.4196 23.9913H2.28045C1.44387 23.9913 0.690733 23.4767 0.37592 22.6901L0.151119 22.1284C-0.12391 21.4412 -0.0187214 20.6575 0.427395 20.07L1.51349 18.6396C4.77017 14.3507 6.92055 9.30464 7.76968 3.95899L7.87882 3.27188ZM9.23912 7.83946C8.06818 12.2488 6.05049 16.393 3.28978 20.0288L2.26917 21.3729L2.40625 21.7154H16.2981L16.4527 21.3616L15.2964 19.873C12.5155 16.2933 10.4613 12.2031 9.23912 7.83946Z" fill="white"/>
</svg>
