<svg width="228" height="42" viewBox="0 0 228 42" fill="none" xmlns="http://www.w3.org/2000/svg">
<path d="M42.8122 40.9637V18.8419H47.0125V22.356H47.245C47.652 21.1654 48.369 20.2293 49.3961 19.5476C50.4328 18.8563 51.6052 18.5106 52.9133 18.5106C53.1846 18.5106 53.5043 18.5202 53.8725 18.5394C54.2504 18.5586 54.5459 18.5826 54.7591 18.6114V22.7305C54.5847 22.6825 54.2746 22.6297 53.8289 22.5721C53.3832 22.5048 52.9375 22.4712 52.4918 22.4712C51.4647 22.4712 50.5491 22.6873 49.7449 23.1193C48.9504 23.5418 48.3206 24.1323 47.8555 24.8908C47.3904 25.6397 47.1578 26.4943 47.1578 27.4544V40.9637H42.8122Z" fill="white"/>
<path d="M67.3418 41.4102C65.1424 41.4102 63.2481 40.9445 61.6591 40.0132C60.0797 39.0722 58.8589 37.752 57.9965 36.0526C57.1439 34.3435 56.7175 32.3416 56.7175 30.0468C56.7175 27.7809 57.1439 25.7838 57.9965 24.0555C58.8589 22.3272 60.0603 20.9782 61.6009 20.0085C63.1512 19.0387 64.9631 18.5538 67.0366 18.5538C68.2962 18.5538 69.5171 18.7603 70.6992 19.1731C71.8813 19.586 72.9423 20.2341 73.8821 21.1174C74.822 22.0008 75.5632 23.1481 76.1058 24.5596C76.6484 25.9614 76.9197 27.6656 76.9197 29.6724V31.199H59.1738V27.9729H72.6613C72.6613 26.8399 72.4287 25.8366 71.9636 24.9628C71.4985 24.0795 70.8445 23.3834 70.0016 22.8745C69.1683 22.3656 68.1897 22.1112 67.0657 22.1112C65.8448 22.1112 64.779 22.4088 63.8682 23.0041C62.9671 23.5898 62.2695 24.3579 61.7753 25.3085C61.2909 26.2494 61.0486 27.272 61.0486 28.3762V30.8965C61.0486 32.3752 61.3103 33.633 61.8335 34.6699C62.3664 35.7069 63.1076 36.499 64.0572 37.0463C65.0067 37.584 66.1161 37.8528 67.3854 37.8528C68.209 37.8528 68.96 37.7376 69.6382 37.5072C70.3165 37.2671 70.9027 36.9119 71.3968 36.4414C71.891 35.9709 72.2688 35.39 72.5305 34.6987L76.6436 35.4333C76.3141 36.6334 75.7231 37.6848 74.8704 38.5873C74.0275 39.4803 72.9665 40.1764 71.6875 40.6757C70.4182 41.1653 68.9696 41.4102 67.3418 41.4102Z" fill="white"/>
<path d="M98.4699 24.2427L94.5312 24.934C94.3665 24.4347 94.1049 23.9595 93.7464 23.5082C93.3976 23.0569 92.9228 22.6873 92.322 22.3992C91.7213 22.1112 90.9704 21.9672 90.0693 21.9672C88.8387 21.9672 87.8117 22.2408 86.9881 22.7881C86.1645 23.3258 85.7527 24.0219 85.7527 24.8764C85.7527 25.6157 86.0289 26.211 86.5811 26.6623C87.1334 27.1136 88.0248 27.4832 89.2554 27.7713L92.8017 28.5778C94.8558 29.0483 96.3867 29.7732 97.3944 30.7525C98.4021 31.7319 98.9059 33.0041 98.9059 34.5691C98.9059 35.8941 98.5183 37.0751 97.7432 38.1121C96.9777 39.1394 95.9071 39.946 94.5312 40.5316C93.165 41.1173 91.5808 41.4102 89.7786 41.4102C87.2788 41.4102 85.2392 40.8821 83.6598 39.8259C82.0805 38.7602 81.1115 37.2479 80.753 35.2892L84.9533 34.6555C85.215 35.7405 85.7527 36.5614 86.5666 37.1183C87.3805 37.6656 88.4415 37.9392 89.7495 37.9392C91.1739 37.9392 92.3124 37.6464 93.165 37.0607C94.0177 36.4654 94.444 35.7405 94.444 34.886C94.444 34.1947 94.1824 33.6138 93.6592 33.1433C93.1456 32.6728 92.356 32.3176 91.2901 32.0775L87.5113 31.2566C85.4281 30.7861 83.8875 30.0372 82.8895 29.0099C81.9012 27.9825 81.4071 26.6815 81.4071 25.1068C81.4071 23.801 81.7752 22.6585 82.5116 21.6791C83.248 20.6998 84.2654 19.9364 85.5638 19.3892C86.8621 18.8323 88.3494 18.5538 90.0257 18.5538C92.4383 18.5538 94.3374 19.0723 95.723 20.1093C97.1086 21.1366 98.0242 22.5144 98.4699 24.2427Z" fill="white"/>
<path d="M113.087 41.4102C110.927 41.4102 109.066 40.9253 107.506 39.9556C105.956 38.9762 104.764 37.6272 103.931 35.9085C103.098 34.1899 102.681 32.2216 102.681 30.0036C102.681 27.7569 103.107 25.7742 103.96 24.0555C104.813 22.3272 106.014 20.9782 107.565 20.0085C109.115 19.0387 110.941 18.5538 113.044 18.5538C114.739 18.5538 116.251 18.8659 117.578 19.49C118.906 20.1045 119.976 20.9686 120.79 22.0824C121.614 23.1961 122.103 24.4972 122.258 25.9854H118.029C117.796 24.9484 117.263 24.0555 116.43 23.3066C115.607 22.5576 114.502 22.1832 113.116 22.1832C111.905 22.1832 110.844 22.5 109.934 23.1337C109.032 23.7578 108.33 24.6508 107.826 25.8126C107.322 26.9647 107.07 28.3282 107.07 29.9028C107.07 31.5158 107.317 32.9081 107.812 34.0794C108.306 35.2508 109.003 36.1582 109.904 36.8015C110.815 37.4448 111.886 37.7664 113.116 37.7664C113.94 37.7664 114.686 37.6176 115.355 37.3199C116.033 37.0127 116.6 36.5758 117.055 36.0093C117.52 35.4429 117.845 34.7612 118.029 33.9642H122.258C122.103 35.3948 121.633 36.6718 120.849 37.7952C120.064 38.9186 119.012 39.8019 117.695 40.4452C116.387 41.0885 114.851 41.4102 113.087 41.4102Z" fill="white"/>
<path d="M126.906 40.9637V18.8419H131.251V40.9637H126.906Z" fill="white"/>
<path d="M146.719 41.4102C144.519 41.4102 142.625 40.9445 141.036 40.0132C139.457 39.0722 138.236 37.752 137.374 36.0526C136.521 34.3435 136.095 32.3416 136.095 30.0468C136.095 27.7809 136.521 25.7838 137.374 24.0555C138.236 22.3272 139.437 20.9782 140.978 20.0085C142.528 19.0387 144.34 18.5538 146.414 18.5538C147.673 18.5538 148.894 18.7603 150.076 19.1731C151.258 19.586 152.319 20.2341 153.259 21.1174C154.199 22.0008 154.94 23.1481 155.483 24.5596C156.025 25.9614 156.297 27.6656 156.297 29.6724V31.199H138.551V27.9729H152.038C152.038 26.8399 151.806 25.8366 151.341 24.9628C150.876 24.0795 150.222 23.3834 149.379 22.8745C148.545 22.3656 147.567 22.1112 146.443 22.1112C145.222 22.1112 144.156 22.4088 143.245 23.0041C142.344 23.5898 141.647 24.3579 141.152 25.3085C140.668 26.2494 140.426 27.272 140.426 28.3762V30.8965C140.426 32.3752 140.687 33.633 141.211 34.6699C141.743 35.7069 142.485 36.499 143.434 37.0463C144.384 37.584 145.493 37.8528 146.763 37.8528C147.586 37.8528 148.337 37.7376 149.015 37.5072C149.694 37.2671 150.28 36.9119 150.774 36.4414C151.268 35.9709 151.646 35.39 151.908 34.6987L156.021 35.4333C155.691 36.6334 155.1 37.6848 154.248 38.5873C153.405 39.4803 152.344 40.1764 151.065 40.6757C149.795 41.1653 148.347 41.4102 146.719 41.4102Z" fill="white"/>
<path d="M165.464 27.8289V40.9637H161.118V18.8419H165.29V22.4424H165.566C166.079 21.2711 166.884 20.3301 167.978 19.6196C169.083 18.9091 170.473 18.5538 172.15 18.5538C173.671 18.5538 175.003 18.8707 176.147 19.5044C177.29 20.1285 178.176 21.0598 178.806 22.2984C179.436 23.537 179.751 25.0684 179.751 26.8927V40.9637H175.405V27.4112C175.405 25.8078 174.984 24.5548 174.141 23.6522C173.298 22.7401 172.14 22.284 170.667 22.284C169.66 22.284 168.763 22.5 167.978 22.9321C167.203 23.3642 166.588 23.9979 166.133 24.8332C165.687 25.6589 165.464 26.6575 165.464 27.8289Z" fill="white"/>
<path d="M194.982 41.4102C192.822 41.4102 190.961 40.9253 189.401 39.9556C187.851 38.9762 186.659 37.6272 185.826 35.9085C184.993 34.1899 184.576 32.2216 184.576 30.0036C184.576 27.7569 185.003 25.7742 185.855 24.0555C186.708 22.3272 187.909 20.9782 189.46 20.0085C191.01 19.0387 192.836 18.5538 194.939 18.5538C196.635 18.5538 198.146 18.8659 199.473 19.49C200.801 20.1045 201.872 20.9686 202.685 22.0824C203.509 23.1961 203.998 24.4972 204.153 25.9854H199.924C199.691 24.9484 199.159 24.0555 198.325 23.3066C197.502 22.5576 196.397 22.1832 195.012 22.1832C193.8 22.1832 192.739 22.5 191.829 23.1337C190.928 23.7578 190.225 24.6508 189.721 25.8126C189.217 26.9647 188.965 28.3282 188.965 29.9028C188.965 31.5158 189.213 32.9081 189.707 34.0794C190.201 35.2508 190.898 36.1582 191.8 36.8015C192.71 37.4448 193.781 37.7664 195.012 37.7664C195.835 37.7664 196.581 37.6176 197.25 37.3199C197.928 37.0127 198.495 36.5758 198.95 36.0093C199.415 35.4429 199.74 34.7612 199.924 33.9642H204.153C203.998 35.3948 203.528 36.6718 202.744 37.7952C201.959 38.9186 200.908 39.8019 199.59 40.4452C198.282 41.0885 196.746 41.4102 194.982 41.4102Z" fill="white"/>
<path d="M218.422 41.4102C216.223 41.4102 214.328 40.9445 212.739 40.0132C211.16 39.0722 209.939 37.752 209.077 36.0526C208.224 34.3435 207.798 32.3416 207.798 30.0468C207.798 27.7809 208.224 25.7838 209.077 24.0555C209.939 22.3272 211.141 20.9782 212.681 20.0085C214.231 19.0387 216.043 18.5538 218.117 18.5538C219.376 18.5538 220.597 18.7603 221.779 19.1731C222.962 19.586 224.023 20.2341 224.962 21.1174C225.902 22.0008 226.643 23.1481 227.186 24.5596C227.729 25.9614 228 27.6656 228 29.6724V31.199H210.254V27.9729H223.742C223.742 26.8399 223.509 25.8366 223.044 24.9628C222.579 24.0795 221.925 23.3834 221.082 22.8745C220.249 22.3656 219.27 22.1112 218.146 22.1112C216.925 22.1112 215.859 22.4088 214.948 23.0041C214.047 23.5898 213.35 24.3579 212.856 25.3085C212.371 26.2494 212.129 27.272 212.129 28.3762V30.8965C212.129 32.3752 212.391 33.633 212.914 34.6699C213.447 35.7069 214.188 36.499 215.137 37.0463C216.087 37.584 217.196 37.8528 218.466 37.8528C219.289 37.8528 220.04 37.7376 220.718 37.5072C221.397 37.2671 221.983 36.9119 222.477 36.4414C222.971 35.9709 223.349 35.39 223.611 34.6987L227.724 35.4333C227.394 36.6334 226.803 37.6848 225.951 38.5873C225.108 39.4803 224.047 40.1764 222.768 40.6757C221.498 41.1653 220.05 41.4102 218.422 41.4102Z" fill="white"/>
<path d="M48.4526 4.63286V11.0943H47.3498V5.65694H43.915V11.0943H42.8122V4.63286H48.4526Z" fill="white"/>
<path d="M53.1942 11.1675C52.5892 11.1675 52.0455 11.0252 51.563 10.7408C51.0805 10.4563 50.7014 10.0662 50.4257 9.57038C50.1577 9.06647 50.0237 8.49754 50.0237 7.86358C50.0237 7.22963 50.1577 6.66476 50.4257 6.16898C50.7014 5.66506 51.0805 5.27494 51.563 4.9986C52.0455 4.71413 52.5892 4.5719 53.1942 4.5719C53.7993 4.5719 54.3392 4.71413 54.814 4.9986C55.2965 5.27494 55.6718 5.66506 55.9398 6.16898C56.2155 6.66476 56.3534 7.22963 56.3534 7.86358C56.3534 8.49754 56.2155 9.06647 55.9398 9.57038C55.6718 10.0662 55.2965 10.4563 54.814 10.7408C54.3392 11.0252 53.7993 11.1675 53.1942 11.1675ZM53.1942 10.1434C53.5848 10.1434 53.9333 10.0499 54.2396 9.86298C54.5536 9.66792 54.7987 9.3997 54.9748 9.05834C55.151 8.70886 55.239 8.3106 55.239 7.86358C55.239 7.41657 55.151 7.02238 54.9748 6.68102C54.7987 6.33153 54.5536 6.06332 54.2396 5.87638C53.9333 5.68945 53.5848 5.59598 53.1942 5.59598C52.8037 5.59598 52.4514 5.68945 52.1374 5.87638C51.831 6.06332 51.586 6.33153 51.4022 6.68102C51.226 7.02238 51.138 7.41657 51.138 7.86358C51.138 8.3106 51.226 8.70886 51.4022 9.05834C51.586 9.3997 51.831 9.66792 52.1374 9.86298C52.4514 10.0499 52.8037 10.1434 53.1942 10.1434Z" fill="white"/>
<path d="M64.9648 4.63286V11.0943H63.9654V6.37623L61.6908 10.3628H61.2083L58.9567 6.36404V11.0943H57.9458V4.63286H59.0831L61.4725 8.99739L63.9309 4.63286H64.9648Z" fill="white"/>
<path d="M69.719 11.1675C69.1139 11.1675 68.5702 11.0252 68.0877 10.7408C67.6052 10.4563 67.2261 10.0662 66.9504 9.57038C66.6824 9.06647 66.5484 8.49754 66.5484 7.86358C66.5484 7.22963 66.6824 6.66476 66.9504 6.16898C67.2261 5.66506 67.6052 5.27494 68.0877 4.9986C68.5702 4.71413 69.1139 4.5719 69.719 4.5719C70.324 4.5719 70.8639 4.71413 71.3387 4.9986C71.8212 5.27494 72.1965 5.66506 72.4645 6.16898C72.7402 6.66476 72.8781 7.22963 72.8781 7.86358C72.8781 8.49754 72.7402 9.06647 72.4645 9.57038C72.1965 10.0662 71.8212 10.4563 71.3387 10.7408C70.8639 11.0252 70.324 11.1675 69.719 11.1675ZM69.719 10.1434C70.1095 10.1434 70.458 10.0499 70.7643 9.86298C71.0783 9.66792 71.3234 9.3997 71.4995 9.05834C71.6757 8.70886 71.7638 8.3106 71.7638 7.86358C71.7638 7.41657 71.6757 7.02238 71.4995 6.68102C71.3234 6.33153 71.0783 6.06332 70.7643 5.87638C70.458 5.68945 70.1095 5.59598 69.719 5.59598C69.3284 5.59598 68.9761 5.68945 68.6621 5.87638C68.3558 6.06332 68.1107 6.33153 67.9269 6.68102C67.7507 7.02238 67.6627 7.41657 67.6627 7.86358C67.6627 8.3106 67.7507 8.70886 67.9269 9.05834C68.1107 9.3997 68.3558 9.66792 68.6621 9.86298C68.9761 10.0499 69.3284 10.1434 69.719 10.1434Z" fill="white"/>
<path d="M78.9507 5.65694H75.5734V11.0943H74.4705V4.63286H78.9507V5.65694Z" fill="white"/>
<path d="M80.0797 4.63286H81.1826V9.33875L84.916 4.63286H85.9155V11.0943H84.8127V6.38842L81.0907 11.0943H80.0797V4.63286Z" fill="white"/>
<path d="M91.1411 4.63286H92.2439V7.37593H95.7132V4.63286H96.816V11.0943H95.7132V8.38782H92.2439V11.0943H91.1411V4.63286Z" fill="white"/>
<path d="M101.131 4.5719C101.974 4.5719 102.617 4.79134 103.061 5.23024C103.513 5.66913 103.739 6.3234 103.739 7.19306V11.0943H102.694V10.2409C102.51 10.5416 102.246 10.7733 101.901 10.9358C101.564 11.0902 101.162 11.1675 100.695 11.1675C100.013 11.1675 99.4658 10.9927 99.0522 10.6432C98.6463 10.2937 98.4434 9.83453 98.4434 9.2656C98.4434 8.69667 98.6387 8.24152 99.0292 7.90016C99.4198 7.55067 100.04 7.37593 100.89 7.37593H102.636V7.14429C102.636 6.64038 102.499 6.25432 102.223 5.9861C101.947 5.71789 101.541 5.58379 101.005 5.58379C100.645 5.58379 100.293 5.64881 99.9483 5.77885C99.6036 5.90076 99.3126 6.06738 99.0752 6.2787L98.6157 5.40092C98.9297 5.13271 99.305 4.92951 99.7415 4.79135C100.178 4.64505 100.641 4.5719 101.131 4.5719ZM100.879 10.2653C101.3 10.2653 101.664 10.1678 101.97 9.9727C102.276 9.76951 102.499 9.48504 102.636 9.1193V8.21714H100.936C100.002 8.21714 99.5347 8.55037 99.5347 9.21683C99.5347 9.54194 99.6534 9.79796 99.8908 9.98489C100.128 10.1718 100.458 10.2653 100.879 10.2653Z" fill="white"/>
<path d="M111.159 4.63286L108.206 11.7405C107.946 12.3988 107.64 12.8621 107.287 13.1303C106.943 13.3985 106.525 13.5326 106.035 13.5326C105.737 13.5326 105.445 13.4798 105.162 13.3741C104.886 13.2766 104.657 13.1303 104.473 12.9352L104.944 12.0574C105.258 12.3744 105.622 12.5329 106.035 12.5329C106.303 12.5329 106.525 12.4557 106.701 12.3013C106.885 12.155 107.05 11.8989 107.195 11.5332L107.391 11.0821L104.703 4.63286H105.851L107.977 9.80202L110.079 4.63286H111.159Z" fill="white"/>
<path d="M114.654 8.36343H113.391V11.0943H112.288V4.63286H113.391V7.36374H114.677L116.653 4.63286H117.836L115.527 7.74167L117.997 11.0943H116.699L114.654 8.36343Z" fill="white"/>
<path d="M124.454 7.90016C124.454 7.98956 124.446 8.10741 124.431 8.25371H119.491C119.56 8.82264 119.794 9.28185 120.192 9.63134C120.598 9.9727 121.1 10.1434 121.697 10.1434C122.425 10.1434 123.01 9.8833 123.455 9.36313L124.064 10.119C123.788 10.4604 123.443 10.7204 123.03 10.8993C122.624 11.0781 122.168 11.1675 121.663 11.1675C121.019 11.1675 120.449 11.0293 119.951 10.753C119.453 10.4685 119.066 10.0743 118.791 9.57038C118.523 9.06647 118.389 8.49754 118.389 7.86358C118.389 7.23776 118.519 6.67289 118.779 6.16898C119.047 5.66506 119.411 5.27494 119.871 4.9986C120.338 4.71413 120.862 4.5719 121.444 4.5719C122.026 4.5719 122.543 4.71413 122.995 4.9986C123.455 5.27494 123.811 5.66506 124.064 6.16898C124.324 6.67289 124.454 7.24995 124.454 7.90016ZM121.444 5.5594C120.916 5.5594 120.472 5.73009 120.112 6.07144C119.759 6.41281 119.553 6.85982 119.491 7.4125H123.397C123.336 6.86795 123.125 6.425 122.765 6.08364C122.413 5.73415 121.973 5.5594 121.444 5.5594Z" fill="white"/>
<path fill-rule="evenodd" clip-rule="evenodd" d="M13.4058 6.15643H6.36407C5.26652 6.15643 4.37677 5.25346 4.37677 4.13958V2.6062C4.37677 1.49233 5.26651 0.589355 6.36407 0.589355H25.1112C26.2087 0.589355 27.0985 1.49232 27.0985 2.6062V4.13958C27.0985 5.25345 26.2087 6.15643 25.1112 6.15643H17.9287L18.1792 7.56508C19.7663 16.4905 23.4901 24.8834 29.023 32.0057L31.1093 34.6912C31.9123 35.7249 32.0857 37.1248 31.5598 38.3281L31.1351 39.2999C30.5743 40.5831 29.3211 41.4103 27.9379 41.4103H3.88017C2.45673 41.4103 1.17528 40.5348 0.639624 39.1964L0.257128 38.2407C-0.210833 37.0714 -0.0318544 35.7379 0.72721 34.7382L2.5752 32.3045C8.11641 25.0069 11.7753 16.4211 13.22 7.32554L13.4058 6.15643ZM15.7203 13.9281C13.728 21.4305 10.2949 28.4819 5.59753 34.6682L3.86097 36.9552L4.09422 37.538H27.7311L27.9942 36.9359L26.0267 34.4032C21.295 28.3122 17.7999 21.3528 15.7203 13.9281Z" fill="white"/>
</svg>
