<svg width="203" height="203" viewBox="0 0 203 203" fill="none" xmlns="http://www.w3.org/2000/svg">
<circle cx="101.5" cy="101.5" r="101.5" fill="url(#paint0_linear_101_1569)"/>
<mask id="mask0_101_1569" style="mask-type:alpha" maskUnits="userSpaceOnUse" x="0" y="0" width="203" height="203">
<circle cx="101.5" cy="101.5" r="101.5" fill="url(#paint1_linear_101_1569)"/>
</mask>
<g mask="url(#mask0_101_1569)">
<path d="M100.871 85.4737C124.439 90.5015 121.82 107.575 117.84 111.556L100.871 99.3003L91.7578 90.5015L100.871 85.4737Z" fill="#FFEBD3" stroke="#0084FF"/>
<path d="M70.9092 96.547C70.7033 73.6215 69.4466 76.3607 103.699 85.7879L97.7283 87.9876L81.5932 93.0907L70.9092 96.547Z" fill="#FFEBD3" stroke="#0084FF"/>
<path d="M85.1595 90.8902L85.0884 90.4902C82.5571 76.2629 77.8587 49.8549 70.0761 45.4644C69.3429 43.9872 74.0355 41.3096 98.6718 42.4176C104.328 42.4176 125.697 39.0939 129.467 37.709C129.209 38.1426 128.521 38.9204 127.632 39.9419C120.963 47.6073 117.955 57.9116 112.391 66.4132C112.032 66.9607 111.65 67.5471 111.242 68.1775C107.471 73.9942 100.872 88.1759 104.643 98.369L99.3 130.499C100.452 141.302 104.768 165.123 112.812 173.986C110.927 174.263 104.831 174.152 95.5291 171.493C90.0823 170.939 77.8689 169.333 72.5897 167.339C71.0449 167.259 68.0653 167.401 66.9747 168.453C66.8544 168.639 66.7358 168.822 66.6191 169.001C66.6857 168.795 66.8082 168.613 66.9747 168.453C73.8771 157.761 86.6417 134.741 85.1592 123.852L85.1595 90.8902Z" fill="white" stroke="#0084FF" stroke-linecap="round"/>
<path d="M64.4196 92.387L84.2169 98.0433C83.4745 97.7528 82.6275 97.4238 81.7076 97.0666C74.5355 94.281 62.9272 89.7724 61.8514 88.3019C61.9351 89.5281 62.5876 91.9261 64.4196 92.387Z" fill="#0084FF"/>
<path d="M60.558 102.128L74.7896 106.528C74.6406 106.469 74.4872 106.408 74.3296 106.346C69.1585 104.305 59.5726 100.52 59.2189 99.3003C59.4247 100.372 59.7895 101.616 60.558 102.128Z" fill="#0084FF"/>
<path fill-rule="evenodd" clip-rule="evenodd" d="M206.457 151.779L168.434 191.059C167.228 182.016 137.73 147.223 121.812 140.398C119.8 139.535 117.965 138.984 116.381 138.818C115.878 138.765 115.4 138.654 114.95 138.549C113.383 138.183 111.611 138.354 110.052 137.956L103.357 136.248L63.9809 120.04C61.1527 118.469 54.9924 116.584 55.6209 114.384C56.2494 113.253 58.072 111.173 60.3345 111.902C62.5537 112.948 68.0435 113.988 70.3902 115.012C60.963 112.167 56.9664 108.539 56.5081 107.785C56.3939 107.371 56.3708 106.922 56.4726 106.427C57.1117 103.317 59.0296 101.814 60.558 102.128L74.7896 106.528C74.6406 106.469 74.4872 106.408 74.3296 106.346C69.1585 104.305 59.5726 100.52 59.2189 99.3003C58.9199 97.7438 59.1475 95.8896 59.706 94.5867C60.5494 92.6193 62.6431 92.4953 63.9808 92.4161C64.1387 92.4068 64.2861 92.3981 64.4196 92.387L84.2169 98.0433C83.4745 97.7528 82.6275 97.4238 81.7076 97.0666C74.5355 94.281 62.9272 89.7724 61.8514 88.3019C61.7981 87.5215 61.9592 86.7574 62.1568 86.2279C63.1623 84.2167 67.5617 81.0743 69.1329 80.7601L114.757 95.114C119.125 96.5271 122.633 100.781 125.744 104.554C126.31 105.24 126.862 105.909 127.404 106.543C141.988 123.602 206.457 151.779 206.457 151.779Z" fill="#FFEBD3"/>
<path d="M60.3345 111.902C62.5537 112.948 68.0435 113.988 70.3902 115.012C60.963 112.167 56.9664 108.539 56.5081 107.785C56.997 109.556 59.1562 110.672 60.3345 111.902Z" fill="#0084FF"/>
<path d="M69.1329 80.7601L69.283 80.2831L69.1606 80.2446L69.0348 80.2698L69.1329 80.7601ZM63.9809 120.04L63.7381 120.477L63.7636 120.492L63.7906 120.503L63.9809 120.04ZM206.457 151.779L206.816 152.126L207.317 151.609L206.657 151.32L206.457 151.779ZM168.434 191.059L167.938 191.125L168.075 192.149L168.793 191.407L168.434 191.059ZM62.1568 86.2279L61.7095 86.0043L61.6976 86.0281L61.6883 86.0531L62.1568 86.2279ZM64.4196 92.387L64.557 91.9062L64.5493 91.904L64.5416 91.9021L64.4196 92.387ZM59.706 94.5867L59.2465 94.3897L59.706 94.5867ZM56.4726 106.427L56.9623 106.527L56.4726 106.427ZM55.6209 114.384L55.1838 114.141L55.1559 114.191L55.1401 114.247L55.6209 114.384ZM70.3902 115.012L70.2457 115.491L70.5903 114.554L70.3902 115.012ZM74.7896 106.528L74.642 107.006L74.9733 106.063L74.7896 106.528ZM84.2169 98.0433L84.0795 98.5241L84.3991 97.5777L84.2169 98.0433ZM61.8514 88.3019L61.3526 88.3359L61.8514 88.3019ZM121.812 140.398L122.009 139.938L121.812 140.398ZM103.357 136.248L103.166 136.71L103.199 136.724L103.233 136.732L103.357 136.248ZM125.744 104.554L125.359 104.872L125.359 104.872L125.744 104.554ZM116.381 138.818L116.433 138.321L116.381 138.818ZM74.3296 106.346L74.146 106.811L74.3296 106.346ZM63.9808 92.4161L63.9513 91.917L63.9808 92.4161ZM81.7076 97.0666L81.5266 97.5326L81.7076 97.0666ZM110.052 137.956L110.176 137.472L110.052 137.956ZM206.098 151.431L168.074 190.711L168.793 191.407L206.816 152.126L206.098 151.431ZM69.0348 80.2698C68.5586 80.365 67.9304 80.6553 67.2737 81.0298C66.6031 81.4123 65.8564 81.9099 65.131 82.459C64.4056 83.008 63.6937 83.6144 63.0953 84.2169C62.5032 84.813 61.9962 85.431 61.7095 86.0043L62.604 86.4515C62.8201 86.0192 63.2401 85.4902 63.8048 84.9216C64.3632 84.3594 65.0379 83.7836 65.7345 83.2563C66.431 82.7291 67.1416 82.2564 67.7692 81.8985C68.4106 81.5326 68.9216 81.3122 69.231 81.2504L69.0348 80.2698ZM60.6587 101.639C59.6898 101.44 58.668 101.828 57.8344 102.634C56.9975 103.443 56.3183 104.694 55.9828 106.326L56.9623 106.527C57.2659 105.05 57.8653 103.995 58.5292 103.353C59.1964 102.708 59.8978 102.503 60.4573 102.618L60.6587 101.639ZM55.1401 114.247C54.9055 115.068 55.3395 115.782 55.9185 116.336C56.5055 116.898 57.3578 117.415 58.2742 117.891C59.1973 118.371 60.2275 118.829 61.1889 119.259C62.1597 119.694 63.0537 120.097 63.7381 120.477L64.2238 119.603C63.4941 119.198 62.5574 118.776 61.5974 118.347C60.628 117.913 59.627 117.467 58.7351 117.004C57.8365 116.537 57.0897 116.073 56.6101 115.614C56.1224 115.147 56.022 114.8 56.1016 114.521L55.1401 114.247ZM60.4104 102.606L74.642 107.006L74.9373 106.05L60.7057 101.651L60.4104 102.606ZM64.2823 92.8678L84.0795 98.5241L84.3542 97.5626L64.557 91.9062L64.2823 92.8678ZM61.6883 86.0531C61.4704 86.637 61.2936 87.4725 61.3526 88.3359L62.3502 88.2678C62.3026 87.5704 62.4479 86.8778 62.6252 86.4026L61.6883 86.0531ZM61.3526 88.3359C61.398 89.0014 61.5949 89.9739 62.0321 90.8539C62.4678 91.7309 63.1826 92.5914 64.2977 92.8719L64.5416 91.9021C63.8247 91.7217 63.2972 91.1528 62.9277 90.409C62.5597 89.6682 62.3885 88.8286 62.3502 88.2678L61.3526 88.3359ZM68.9829 81.237L114.607 95.591L114.907 94.6371L69.283 80.2831L68.9829 81.237ZM127.024 106.868C130.724 111.196 137.547 116.19 145.644 121.232C153.756 126.283 163.196 131.412 172.172 136.003C181.149 140.595 189.67 144.653 195.945 147.563C199.083 149.018 201.661 150.186 203.454 150.991C204.35 151.393 205.05 151.704 205.527 151.915C205.765 152.021 205.947 152.101 206.07 152.155C206.132 152.182 206.178 152.202 206.209 152.216C206.225 152.223 206.237 152.228 206.245 152.232C206.249 152.233 206.252 152.235 206.254 152.235C206.255 152.236 206.255 152.236 206.256 152.236C206.256 152.237 206.257 152.237 206.457 151.779C206.657 151.32 206.657 151.32 206.656 151.32C206.656 151.32 206.655 151.32 206.654 151.319C206.652 151.318 206.649 151.317 206.646 151.315C206.638 151.312 206.626 151.307 206.611 151.3C206.58 151.287 206.534 151.266 206.473 151.24C206.351 151.186 206.169 151.106 205.932 151.001C205.457 150.791 204.758 150.48 203.863 150.078C202.073 149.275 199.5 148.109 196.366 146.656C190.098 143.75 181.59 139.697 172.627 135.113C163.663 130.528 154.251 125.414 146.173 120.383C138.081 115.345 131.376 110.419 127.784 106.218L127.024 106.868ZM168.929 190.993C168.767 189.773 168.14 188.177 167.181 186.335C166.215 184.481 164.89 182.335 163.291 180.005C160.093 175.344 155.781 169.917 151.013 164.564C146.245 159.211 141.012 153.924 135.97 149.544C130.936 145.171 126.061 141.676 122.009 139.938L121.615 140.858C125.522 142.533 130.303 145.946 135.314 150.299C140.318 154.645 145.52 159.901 150.266 165.23C155.013 170.559 159.297 175.952 162.467 180.571C164.051 182.881 165.353 184.99 166.294 186.797C167.24 188.615 167.799 190.084 167.938 191.125L168.929 190.993ZM103.547 135.785L64.1712 119.578L63.7906 120.503L103.166 136.71L103.547 135.785ZM127.784 106.218C127.245 105.588 126.696 104.922 126.13 104.236L125.359 104.872C125.923 105.557 126.478 106.23 127.024 106.868L127.784 106.218ZM126.13 104.236C124.578 102.354 122.903 100.322 121.065 98.5855C119.227 96.8487 117.194 95.377 114.911 94.6383L114.603 95.5898C116.687 96.2641 118.593 97.6258 120.378 99.3124C122.164 100.999 123.799 102.981 125.359 104.872L126.13 104.236ZM103.233 136.732L109.928 138.441L110.176 137.472L103.48 135.763L103.233 136.732ZM59.2465 94.3897C58.6488 95.7839 58.4099 97.7395 58.7279 99.3946L59.7099 99.206C59.4298 97.7481 59.6462 95.9954 60.1656 94.7837L59.2465 94.3897ZM58.7279 99.3946C58.8335 99.9444 58.9839 100.562 59.2162 101.117C59.4451 101.664 59.7772 102.209 60.2807 102.544L60.8354 101.712C60.5703 101.536 60.3358 101.202 60.1387 100.731C59.945 100.268 59.8101 99.7275 59.7099 99.206L58.7279 99.3946ZM116.329 139.315C117.844 139.474 119.628 140.006 121.615 140.858L122.009 139.938C119.972 139.065 118.085 138.494 116.433 138.321L116.329 139.315ZM116.284 139.309C118.159 139.676 119.958 140.147 121.615 140.858L122.009 139.938C120.261 139.189 118.387 138.702 116.477 138.327L116.284 139.309ZM70.5903 114.554C69.3732 114.023 67.367 113.495 65.4435 112.982C63.4801 112.458 61.6064 111.949 60.5476 111.45L60.1214 112.354C61.2817 112.901 63.2625 113.435 65.1856 113.948C67.1485 114.472 69.0605 114.977 70.1901 115.471L70.5903 114.554ZM56.0579 114.627C56.3437 114.113 56.9092 113.373 57.6511 112.856C58.3846 112.344 59.2438 112.076 60.1812 112.378L60.4878 111.426C59.1626 110.999 57.9793 111.407 57.0788 112.036C56.1865 112.658 55.5265 113.524 55.1838 114.141L56.0579 114.627ZM55.9828 106.326C55.8653 106.898 55.8907 107.427 56.0261 107.918L56.99 107.652C56.8971 107.315 56.8764 106.946 56.9623 106.527L55.9828 106.326ZM56.0261 107.918C56.3119 108.954 57.0724 109.757 57.8337 110.423C58.2169 110.758 58.6264 111.079 58.993 111.377C59.3675 111.681 59.7022 111.965 59.9734 112.248L60.6956 111.556C60.3777 111.224 60.0006 110.907 59.6235 110.601C59.2387 110.288 58.8569 109.989 58.4918 109.67C57.7567 109.027 57.1931 108.388 56.99 107.652L56.0261 107.918ZM70.5347 114.534C65.8585 113.122 62.5416 111.52 60.3453 110.187C59.2468 109.52 58.4306 108.921 57.8656 108.449C57.2846 107.963 57.0043 107.639 56.9353 107.525L56.0808 108.045C56.241 108.308 56.6321 108.72 57.224 109.216C57.8319 109.724 58.69 110.352 59.8263 111.042C62.0997 112.422 65.4948 114.057 70.2457 115.491L70.5347 114.534ZM116.433 138.321C115.966 138.272 115.517 138.168 115.063 138.062L114.836 139.035C115.282 139.14 115.789 139.259 116.329 139.315L116.433 138.321ZM74.9733 106.063C74.8243 106.004 74.6708 105.943 74.5132 105.881L74.146 106.811C74.3036 106.873 74.457 106.934 74.6059 106.993L74.9733 106.063ZM74.5132 105.881C71.9258 104.86 68.2455 103.407 65.1685 102.057C63.6287 101.382 62.2509 100.737 61.2404 100.189C60.7337 99.9144 60.3326 99.6709 60.0531 99.4662C59.9131 99.3636 59.8148 99.2789 59.7517 99.2128C59.681 99.1386 59.688 99.1226 59.6991 99.1611L58.7387 99.4396C58.7941 99.6305 58.9174 99.787 59.0284 99.9033C59.1471 100.028 59.2962 100.151 59.4622 100.273C59.7948 100.517 60.2411 100.785 60.7636 101.068C61.8115 101.637 63.2197 102.294 64.7669 102.973C67.8641 104.331 71.5622 105.791 74.146 106.811L74.5132 105.881ZM60.1656 94.7837C60.5206 93.9554 61.1301 93.515 61.8275 93.2637C62.5454 93.0051 63.3321 92.9554 64.0103 92.9153L63.9513 91.917C63.2918 91.956 62.3628 92.0079 61.4885 92.3229C60.5939 92.6453 59.7348 93.2505 59.2465 94.3897L60.1656 94.7837ZM64.0103 92.9153C64.1668 92.906 64.3204 92.8969 64.4609 92.8853L64.3784 91.8887C64.2518 91.8992 64.1107 91.9076 63.9513 91.917L64.0103 92.9153ZM84.3991 97.5777C83.656 97.2869 82.8084 96.9577 81.8886 96.6005L81.5266 97.5326C82.4467 97.89 83.293 98.2187 84.0346 98.509L84.3991 97.5777ZM81.8886 96.6005C78.301 95.2071 73.6129 93.3862 69.6877 91.7304C67.7244 90.9021 65.9597 90.1184 64.6221 89.4524C63.9526 89.1191 63.3984 88.8193 62.9829 88.5615C62.546 88.2905 62.3257 88.1033 62.2549 88.0066L61.4479 88.5971C61.6461 88.8681 62.0239 89.1434 62.4557 89.4113C62.909 89.6925 63.4942 90.0079 64.1764 90.3476C65.542 91.0276 67.3294 91.8208 69.2991 92.6518C73.24 94.3142 77.9421 96.1404 81.5266 97.5326L81.8886 96.6005ZM109.928 138.441C110.76 138.653 111.64 138.711 112.466 138.763C113.311 138.817 114.101 138.864 114.836 139.035L115.063 138.062C114.232 137.867 113.352 137.817 112.529 137.765C111.689 137.712 110.902 137.657 110.176 137.472L109.928 138.441ZM127.784 106.218C126.046 104.186 124.142 101.707 122.052 99.5599C119.956 97.4057 117.607 95.5105 114.911 94.6383L114.603 95.5898C117.068 96.3873 119.28 98.1451 121.336 100.257C123.397 102.376 125.236 104.778 127.024 106.868L127.784 106.218Z" fill="#0084FF"/>
</g>
<defs>
<linearGradient id="paint0_linear_101_1569" x1="1.89058e-06" y1="203" x2="209.45" y2="6.88914" gradientUnits="userSpaceOnUse">
<stop stop-color="#0084FF"/>
<stop offset="1" stop-color="#00E0FF"/>
</linearGradient>
<linearGradient id="paint1_linear_101_1569" x1="1.89058e-06" y1="203" x2="209.45" y2="6.88914" gradientUnits="userSpaceOnUse">
<stop stop-color="#0084FF"/>
<stop offset="1" stop-color="#00E0FF"/>
</linearGradient>
</defs>
</svg>
