<svg width="203" height="203" viewBox="0 0 203 203" fill="none" xmlns="http://www.w3.org/2000/svg">
<circle cx="101.5" cy="101.5" r="101.5" fill="url(#paint0_linear_101_1577)"/>
<mask id="mask0_101_1577" style="mask-type:alpha" maskUnits="userSpaceOnUse" x="0" y="0" width="203" height="203">
<circle cx="101.5" cy="101.5" r="101.5" fill="#0084FF"/>
</mask>
<g mask="url(#mask0_101_1577)">
<path d="M126.066 164.691C135.619 163.937 159.585 182.603 170.374 192.031L202.741 168.777L184.83 160.292L173.322 157.231C155.056 152.371 138.28 143.058 124.495 130.125C110.669 116.299 91.1311 118.718 85.1605 119.347C81.0753 119.347 81.3895 124.807 84.2177 125.003C91.5081 125.505 103.596 126.574 104.015 131.602C71.0196 126.888 35.8791 133.582 39.9643 137.667C36.9476 137.918 37.869 142.694 37.7643 145.837C37.5543 152.122 41.5359 151.295 47.1919 154.007C70.1315 165.006 111.297 167.939 126.066 164.691Z" fill="#FFEBD3"/>
<path d="M47.1919 154.007C70.1315 165.006 111.297 167.939 126.066 164.691C135.619 163.937 159.585 182.603 170.374 192.031L202.741 168.777L184.83 160.292L173.322 157.231C155.056 152.371 138.28 143.058 124.495 130.125V130.125C110.669 116.299 91.1311 118.718 85.1605 119.347C81.0753 119.347 81.3895 124.807 84.2177 125.003C91.5081 125.505 103.596 126.574 104.015 131.602M47.1919 154.007C43.1068 147.722 99.6702 155.578 99.6702 155.578M47.1919 154.007C41.5359 151.295 37.5543 152.122 37.7643 145.837M37.7643 145.837C37.869 142.694 36.9476 137.918 39.9643 137.667M37.7643 145.837C37.7643 145.837 65.1033 140.181 93.0711 145.208M39.9643 137.667C35.8791 133.582 71.0196 126.888 104.015 131.602M39.9643 137.667L82.0726 134.21M104.015 131.602C104.224 134.115 104.07 143.072 115.382 145.837" stroke="#0085FF"/>
<path fill-rule="evenodd" clip-rule="evenodd" d="M121.507 41.1668C124.804 43.7125 125.413 48.4487 122.868 51.7455L84.5301 101.396C81.9845 104.692 77.2482 105.301 73.9515 102.756C70.6547 100.21 70.0457 95.4739 72.5913 92.1771L110.929 42.527C113.474 39.2302 118.211 38.6212 121.507 41.1668Z" fill="white" stroke="#0084FF" stroke-linecap="round"/>
<circle cx="81.3895" cy="44.308" r="9.86997" fill="white" stroke="#0084FF"/>
<circle cx="121.612" cy="96.4721" r="9.86997" fill="white" stroke="#0084FF"/>
</g>
<defs>
<linearGradient id="paint0_linear_101_1577" x1="1.89058e-06" y1="203" x2="209.45" y2="6.88914" gradientUnits="userSpaceOnUse">
<stop stop-color="#0084FF"/>
<stop offset="1" stop-color="#00E0FF"/>
</linearGradient>
</defs>
</svg>
