<svg width="211" height="197" viewBox="0 0 211 197" fill="none" xmlns="http://www.w3.org/2000/svg">
<rect x="0.811523" width="209.377" height="197" rx="97" fill="url(#paint0_linear_101_1593)"/>
<mask id="mask0_101_1593" style="mask-type:alpha" maskUnits="userSpaceOnUse" x="0" y="0" width="211" height="197">
<rect x="0.811523" width="209.377" height="197" rx="97" fill="#C4C4C4"/>
</mask>
<g mask="url(#mask0_101_1593)">
<path d="M88.6995 138.306C90.121 149.131 70.2965 177.5 60.2066 190.332L88.5735 225.787L97.1707 204.907L99.9754 191.633C104.427 170.564 114.034 150.927 127.936 134.48C142.852 117.933 138.947 95.8461 137.88 89.0899C137.639 84.4418 131.444 85.1214 131.389 88.3508C131.247 96.6754 130.744 110.492 125.048 111.265C128.466 73.4453 118.777 33.8576 114.37 38.7467C113.906 35.3291 108.526 36.6592 104.945 36.7253C97.7814 36.8571 98.9565 41.3385 96.2045 47.9338C85.0434 74.6828 84.134 121.693 88.6995 138.306Z" fill="#FFEBD3"/>
<path d="M96.2045 47.9338C85.0434 74.6828 84.134 121.693 88.6995 138.306C90.121 149.131 70.2965 177.5 60.2066 190.332L88.5735 225.787L97.1707 204.907L99.9754 191.633C104.427 170.564 114.034 150.927 127.936 134.48V134.48C142.852 117.933 138.947 95.8461 137.88 89.0899C137.639 84.4418 131.444 85.1214 131.389 88.3508C131.247 96.6754 130.744 110.492 125.048 111.265M96.2045 47.9338C103.114 42.9151 97.5116 107.736 97.5116 107.736M96.2045 47.9338C98.9565 41.3385 97.7814 36.8571 104.945 36.7253M104.945 36.7253C108.526 36.6592 113.906 35.3291 114.37 38.7467M104.945 36.7253C104.945 36.7253 112.993 67.4978 108.921 99.6157M114.37 38.7467C118.777 33.8576 128.466 73.4453 125.048 111.265M114.37 38.7467L120.787 86.4532M125.048 111.265C122.201 111.652 112.001 112.004 109.522 125.038" stroke="#0085FF"/>
<path d="M24.8464 163.981C26.1102 173.604 8.48557 198.825 -0.484683 210.233L24.7343 241.754L32.3775 223.191L34.871 211.39C38.8287 192.659 47.3695 175.201 59.7287 160.579C72.9894 145.868 69.5179 126.232 68.5693 120.226C68.3551 116.094 62.8478 116.698 62.7988 119.569C62.6725 126.97 62.2256 139.253 57.1617 139.94C60.1997 106.317 51.5863 71.1229 47.6685 75.4694C47.2561 72.4311 42.4728 73.6135 39.2887 73.6723C32.9204 73.7894 33.9652 77.7735 31.5185 83.637C21.596 107.418 20.7875 149.212 24.8464 163.981Z" fill="#FFEBD3"/>
<path d="M31.5185 83.637C21.596 107.418 20.7875 149.212 24.8464 163.981C26.1102 173.604 8.48557 198.825 -0.484686 210.233L24.7343 241.754L32.3775 223.191L34.871 211.39C38.8287 192.659 47.3695 175.201 59.7287 160.579V160.579C72.9894 145.868 69.5179 126.232 68.5693 120.226C68.3551 116.094 62.8478 116.698 62.7988 119.569C62.6725 126.97 62.2256 139.253 57.1617 139.94M31.5185 83.637C37.6616 79.1752 32.6806 136.803 32.6806 136.803M31.5185 83.637C33.9652 77.7735 32.9204 73.7894 39.2887 73.6723M39.2887 73.6723C42.4728 73.6135 47.2561 72.4311 47.6685 75.4694M39.2887 73.6723C39.2887 73.6723 46.4436 101.03 42.8242 129.584M47.6685 75.4694C51.5863 71.1229 60.1997 106.317 57.1617 139.94M47.6685 75.4694L53.3728 117.882M57.1617 139.94C54.6298 140.284 45.5623 140.597 43.3582 152.185" stroke="#0085FF"/>
<path d="M147.585 163.981C148.848 173.604 131.224 198.825 122.254 210.233L147.473 241.754L155.116 223.191L157.609 211.39C161.567 192.659 170.108 175.201 182.467 160.579C195.728 145.868 192.256 126.232 191.308 120.226C191.093 116.094 185.586 116.698 185.537 119.569C185.411 126.97 184.964 139.253 179.9 139.94C182.938 106.317 174.325 71.1229 170.407 75.4694C169.994 72.4311 165.211 73.6135 162.027 73.6723C155.659 73.7894 156.703 77.7735 154.257 83.637C144.334 107.418 143.526 149.212 147.585 163.981Z" fill="#FFEBD3"/>
<path d="M154.257 83.637C144.334 107.418 143.526 149.212 147.585 163.981C148.848 173.604 131.224 198.825 122.254 210.233L147.473 241.754L155.116 223.191L157.609 211.39C161.567 192.659 170.108 175.201 182.467 160.579V160.579C195.728 145.868 192.256 126.232 191.308 120.226C191.093 116.094 185.586 116.698 185.537 119.569C185.411 126.97 184.964 139.253 179.9 139.94M154.257 83.637C160.4 79.1752 155.419 136.803 155.419 136.803M154.257 83.637C156.703 77.7735 155.659 73.7894 162.027 73.6723M162.027 73.6723C165.211 73.6135 169.994 72.4311 170.407 75.4694M162.027 73.6723C162.027 73.6723 169.182 101.03 165.562 129.584M170.407 75.4694C174.325 71.1229 182.938 106.317 179.9 139.94M170.407 75.4694L176.111 117.882M179.9 139.94C177.368 140.284 168.301 140.597 166.096 152.185" stroke="#0085FF"/>
</g>
<defs>
<linearGradient id="paint0_linear_101_1593" x1="0.811525" y1="197" x2="204.509" y2="-5.70714" gradientUnits="userSpaceOnUse">
<stop stop-color="#0084FF"/>
<stop offset="1" stop-color="#00E0FF"/>
</linearGradient>
</defs>
</svg>
