<svg width="14" height="14" viewBox="0 0 14 14" fill="none" xmlns="http://www.w3.org/2000/svg">
<path d="M9.8285 8.64898L7.707 10.7147C7.61422 10.8052 7.50405 10.8769 7.38278 10.9259C7.26151 10.9748 7.13152 11 7.00025 11C6.86898 11 6.73899 10.9748 6.61772 10.9259C6.49645 10.8769 6.38628 10.8052 6.2935 10.7147L4.1715 8.64898C3.61211 8.10425 3.23117 7.41024 3.07685 6.65471C2.92252 5.89917 3.00175 5.11605 3.3045 4.40435C3.60726 3.69266 4.11995 3.08437 4.77774 2.6564C5.43553 2.22843 6.20888 2 7 2C7.79112 2 8.56447 2.22843 9.22226 2.6564C9.88005 3.08437 10.3927 3.69266 10.6955 4.40435C10.9983 5.11605 11.0775 5.89917 10.9232 6.65471C10.7688 7.41024 10.3879 8.10425 9.8285 8.64898V8.64898Z" stroke="white" stroke-width="0.75" stroke-linecap="round" stroke-linejoin="round"/>
<path d="M8 6C8 6.26522 7.89464 6.51957 7.70711 6.70711C7.51957 6.89464 7.26522 7 7 7C6.73478 7 6.48043 6.89464 6.29289 6.70711C6.10536 6.51957 6 6.26522 6 6C6 5.73478 6.10536 5.48043 6.29289 5.29289C6.48043 5.10536 6.73478 5 7 5C7.26522 5 7.51957 5.10536 7.70711 5.29289C7.89464 5.48043 8 5.73478 8 6V6Z" stroke="white" stroke-width="0.75" stroke-linecap="round" stroke-linejoin="round"/>
</svg>
