<svg width="20" height="20" viewBox="0 0 20 20" fill="none" xmlns="http://www.w3.org/2000/svg">
<path d="M14.7142 13.8808L11.1783 17.4167C11.0237 17.5715 10.8401 17.6942 10.638 17.778C10.4359 17.8618 10.2192 17.9049 10.0004 17.9049C9.78164 17.9049 9.565 17.8618 9.36288 17.778C9.16077 17.6942 8.97714 17.5715 8.82251 17.4167L5.28585 13.8808C4.35353 12.9485 3.71863 11.7606 3.46142 10.4674C3.20421 9.17419 3.33625 7.83376 3.84085 6.61561C4.34544 5.39745 5.19993 4.35628 6.29625 3.62376C7.39257 2.89123 8.68149 2.50024 10 2.50024C11.3185 2.50024 12.6075 2.89123 13.7038 3.62376C14.8001 4.35628 15.6546 5.39745 16.1592 6.61561C16.6638 7.83376 16.7958 9.17419 16.5386 10.4674C16.2814 11.7606 15.6465 12.9485 14.7142 13.8808V13.8808Z" stroke="#222222" stroke-width="1.5" stroke-linecap="round" stroke-linejoin="round"/>
<path d="M12.5 9.16666C12.5 9.8297 12.2366 10.4656 11.7678 10.9344C11.2989 11.4033 10.663 11.6667 10 11.6667C9.33696 11.6667 8.70107 11.4033 8.23223 10.9344C7.76339 10.4656 7.5 9.8297 7.5 9.16666C7.5 8.50361 7.76339 7.86773 8.23223 7.39889C8.70107 6.93005 9.33696 6.66666 10 6.66666C10.663 6.66666 11.2989 6.93005 11.7678 7.39889C12.2366 7.86773 12.5 8.50361 12.5 9.16666V9.16666Z" stroke="#222222" stroke-width="1.5" stroke-linecap="round" stroke-linejoin="round"/>
</svg>
