<svg width="29" height="36" viewBox="0 0 29 36" fill="none" xmlns="http://www.w3.org/2000/svg">
<path fill-rule="evenodd" clip-rule="evenodd" d="M12.2022 4.9096H5.79273C4.79371 4.9096 3.98384 4.11327 3.98384 3.13094V1.77866C3.98384 0.796333 4.79371 0 5.79273 0H22.8568C23.8558 0 24.6657 0.796329 24.6657 1.77866V3.13094C24.6657 4.11327 23.8559 4.9096 22.8568 4.9096H16.3191L16.5471 6.15189C17.9918 14.0232 21.3813 21.4249 26.4175 27.7061L28.3164 30.0744C29.0474 30.9861 29.2052 32.2206 28.7266 33.2818L28.34 34.1388C27.8295 35.2704 26.6888 36 25.4297 36H3.53183C2.23617 36 1.06977 35.2279 0.582202 34.0476L0.234044 33.2047C-0.191905 32.1735 -0.0289946 30.9975 0.661924 30.1159L2.34401 27.9696C7.38776 21.5338 10.7181 13.962 12.0332 5.94064L12.2022 4.9096ZM14.309 11.7635C12.4955 18.3798 9.37064 24.5985 5.09501 30.0541L3.51435 32.071L3.72666 32.585H25.2415L25.481 32.054L23.6901 29.8204C19.3832 24.4488 16.2019 18.3113 14.309 11.7635Z" fill="white"/>
</svg>
