<svg width="14" height="14" viewBox="0 0 14 14" fill="none" xmlns="http://www.w3.org/2000/svg">
<g clip-path="url(#clip0_36_61)">
<path d="M4.262 8.738V9.564H7.37V10.362H4.262V12H2.848V10.362H1.42V9.564H2.848V2.2H6.698C7.97667 2.2 8.97533 2.48467 9.694 3.054C10.4127 3.614 10.772 4.41667 10.772 5.462C10.772 6.51667 10.4127 7.32867 9.694 7.898C8.97533 8.458 7.97667 8.738 6.698 8.738H4.262ZM9.358 5.476C9.358 4.81333 9.12933 4.30467 8.672 3.95C8.21467 3.59533 7.55667 3.418 6.698 3.418H4.262V7.576H6.698C7.54733 7.576 8.20067 7.394 8.658 7.03C9.12467 6.65667 9.358 6.13867 9.358 5.476Z" fill="white"/>
</g>
<defs>
<clipPath id="clip0_36_61">
<rect width="14" height="14" fill="white"/>
</clipPath>
</defs>
</svg>
