<svg width="27" height="27" viewBox="0 0 27 27" fill="none" xmlns="http://www.w3.org/2000/svg">
<path d="M9.76959 15.0097C9.99684 14.5552 10.1251 14.0422 10.1251 13.5C10.1251 12.9577 9.99684 12.4447 9.76959 11.9902V15.0097ZM9.76959 15.0097C9.4295 15.6897 8.86982 16.2349 8.1812 16.557C7.49257 16.8792 6.71536 16.9594 5.97546 16.7847C5.23557 16.6099 4.57633 16.1905 4.10455 15.5944C3.63278 14.9982 3.3761 14.2602 3.3761 13.5C3.3761 12.7397 3.63278 12.0018 4.10455 11.4056C4.57633 10.8095 5.23557 10.39 5.97546 10.2153C6.71536 10.0406 7.49257 10.1208 8.1812 10.443C8.86982 10.7651 9.4295 11.3103 9.76959 11.9902V15.0097ZM9.76959 15.0097L17.2306 18.7402L9.76959 15.0097ZM9.76959 11.9902L17.2306 8.25974L9.76959 11.9902ZM17.2306 8.25974C17.4289 8.65619 17.7033 9.00971 18.0381 9.30012C18.373 9.59052 18.7618 9.81212 19.1824 9.95226C19.6029 10.0924 20.0469 10.1483 20.4891 10.1169C20.9312 10.0854 21.3628 9.96719 21.7593 9.76893C22.1557 9.57067 22.5092 9.29626 22.7996 8.96137C23.0901 8.62648 23.3117 8.23768 23.4518 7.81715C23.5919 7.39662 23.6479 6.95261 23.6164 6.51046C23.585 6.06832 23.4667 5.63669 23.2685 5.24024C22.8681 4.43957 22.166 3.83075 21.3167 3.54773C20.4674 3.2647 19.5404 3.33064 18.7398 3.73105C17.9391 4.13146 17.3303 4.83354 17.0473 5.68283C16.7642 6.53213 16.8302 7.45907 17.2306 8.25974V8.25974ZM17.2306 18.7402C16.8302 19.5411 16.7643 20.4681 17.0474 21.3175C17.3306 22.1669 17.9395 22.8691 18.7403 23.2695C19.5412 23.6699 20.4682 23.7358 21.3176 23.4527C22.167 23.1695 22.8692 22.5606 23.2696 21.7597C23.67 20.9589 23.7359 20.0318 23.4528 19.1824C23.1696 18.333 22.5607 17.6309 21.7598 17.2305C21.3633 17.0322 20.9316 16.914 20.4894 16.8826C20.0472 16.8512 19.6031 16.9071 19.1825 17.0473C18.3331 17.3305 17.631 17.9394 17.2306 18.7402V18.7402Z" stroke="#0084FF" stroke-width="2.25" stroke-linecap="round" stroke-linejoin="round"/>
</svg>
