<svg width="30" height="30" viewBox="0 0 30 30" fill="none" xmlns="http://www.w3.org/2000/svg">
<g clip-path="url(#clip0_12_1668)">
<path fill-rule="evenodd" clip-rule="evenodd" d="M29.03 14.6324C29.03 22.6406 22.5381 29.1324 14.53 29.1324C6.52182 29.1324 0.029953 22.6406 0.029953 14.6324C0.029953 6.62432 6.52182 0.132446 14.53 0.132446C22.5381 0.132446 29.03 6.62432 29.03 14.6324ZM15.0496 10.837C13.6392 11.4236 10.8205 12.6377 6.59349 14.4794C5.90708 14.7523 5.54751 15.0194 5.51478 15.2805C5.45946 15.7218 6.01207 15.8955 6.76457 16.1321C6.86693 16.1643 6.97298 16.1977 7.08171 16.233C7.82206 16.4737 8.81795 16.7552 9.33568 16.7664C9.8053 16.7765 10.3295 16.5829 10.9081 16.1856C14.8576 13.5196 16.8963 12.172 17.0243 12.143C17.1146 12.1225 17.2398 12.0967 17.3245 12.1721C17.4093 12.2475 17.401 12.3902 17.392 12.4285C17.3373 12.6618 15.1681 14.6785 14.0456 15.7221C13.6956 16.0474 13.4474 16.2782 13.3966 16.3309C13.283 16.449 13.1671 16.5607 13.0558 16.668C12.368 17.3311 11.8522 17.8283 13.0843 18.6402C13.6764 19.0304 14.1502 19.3531 14.6229 19.675C15.1392 20.0265 15.654 20.3772 16.3202 20.8139C16.49 20.9251 16.6521 21.0407 16.8099 21.1532C17.4107 21.5815 17.9504 21.9663 18.6172 21.905C19.0047 21.8693 19.4049 21.505 19.6082 20.4184C20.0885 17.8504 21.0328 12.2864 21.251 9.99362C21.2701 9.79274 21.246 9.53566 21.2267 9.42281C21.2074 9.30995 21.167 9.14916 21.0204 9.03013C20.8466 8.88916 20.5784 8.85943 20.4585 8.86155C19.9131 8.87115 19.0764 9.1621 15.0496 10.837Z" fill="#7FC1FF"/>
</g>
<defs>
<clipPath id="clip0_12_1668">
<rect width="29" height="29" fill="white" transform="translate(0.029953 0.132446)"/>
</clipPath>
</defs>
</svg>
