<svg width="29" height="30" viewBox="0 0 29 30" fill="none" xmlns="http://www.w3.org/2000/svg">
<path d="M20.5048 10.7621C22.2951 12.0464 24.4882 12.8021 26.857 12.8021V8.22768C26.4087 8.22778 25.9616 8.18087 25.523 8.08761V11.6883C23.1544 11.6883 20.9615 10.9327 19.1708 9.64844V18.9835C19.1708 23.6534 15.3985 27.4388 10.7455 27.4388C9.00939 27.4388 7.39572 26.9121 6.05524 26.0087C7.58517 27.5786 9.71879 28.5525 12.0793 28.5525C16.7325 28.5525 20.505 24.7671 20.505 20.097V10.7621H20.5048ZM22.1504 6.14709C21.2355 5.14396 20.6348 3.8476 20.5048 2.41442V1.82605H19.2406C19.5588 3.64762 20.6442 5.20386 22.1504 6.14709ZM8.99826 22.4251C8.48707 21.7525 8.21083 20.9297 8.21207 20.0836C8.21207 17.9478 9.93746 16.216 12.0661 16.216C12.4628 16.2159 12.8572 16.2769 13.2352 16.3973V11.7206C12.7934 11.6599 12.3475 11.6341 11.9018 11.6435V15.2836C11.5234 15.1632 11.1289 15.1021 10.7321 15.1025C8.60345 15.1025 6.87816 16.834 6.87816 18.9701C6.87816 20.4805 7.74057 21.7881 8.99826 22.4251Z" fill="#7FC1FF"/>
<path d="M19.1707 9.64835C20.9615 10.9326 23.1544 11.6882 25.5229 11.6882V8.08752C24.2008 7.8049 23.0304 7.11152 22.1504 6.14709C20.644 5.20377 19.5587 3.64753 19.2405 1.82605H15.9199V20.0968C15.9124 22.2268 14.19 23.9515 12.0659 23.9515C10.8142 23.9515 9.70217 23.3527 8.99791 22.4251C7.74032 21.7881 6.87791 20.4804 6.87791 18.9702C6.87791 16.8343 8.6032 15.1026 10.7319 15.1026C11.1397 15.1026 11.5328 15.1663 11.9015 15.2837V11.6436C7.33028 11.7384 3.65388 15.4868 3.65388 20.0969C3.65388 22.3982 4.56939 24.4844 6.05527 26.0088C7.39575 26.9121 9.00943 27.4389 10.7456 27.4389C15.3987 27.4389 19.1708 23.6533 19.1708 18.9835V9.64835H19.1707Z" fill="#7FC1FF"/>
</svg>
