<svg width="45" height="45" viewBox="0 0 45 45" fill="none" xmlns="http://www.w3.org/2000/svg">
<path d="M9.60187 33.3825C13.5364 31.1586 17.9805 29.9932 22.5 30C27.1875 30 31.5881 31.2281 35.3981 33.3825M28.125 18.75C28.125 20.2418 27.5324 21.6726 26.4775 22.7275C25.4226 23.7824 23.9918 24.375 22.5 24.375C21.0082 24.375 19.5774 23.7824 18.5225 22.7275C17.4676 21.6726 16.875 20.2418 16.875 18.75C16.875 17.2582 17.4676 15.8274 18.5225 14.7725C19.5774 13.7176 21.0082 13.125 22.5 13.125C23.9918 13.125 25.4226 13.7176 26.4775 14.7725C27.5324 15.8274 28.125 17.2582 28.125 18.75ZM39.375 22.5C39.375 24.7161 38.9385 26.9104 38.0905 28.9578C37.2424 31.0052 35.9994 32.8654 34.4324 34.4324C32.8654 35.9994 31.0052 37.2424 28.9578 38.0905C26.9104 38.9385 24.7161 39.375 22.5 39.375C20.2839 39.375 18.0896 38.9385 16.0422 38.0905C13.9948 37.2424 12.1346 35.9994 10.5676 34.4324C9.00058 32.8654 7.75758 31.0052 6.90953 28.9578C6.06148 26.9104 5.625 24.7161 5.625 22.5C5.625 18.0245 7.4029 13.7322 10.5676 10.5676C13.7322 7.4029 18.0245 5.625 22.5 5.625C26.9755 5.625 31.2678 7.4029 34.4324 10.5676C37.5971 13.7322 39.375 18.0245 39.375 22.5Z" stroke="#0084FF" stroke-width="2" stroke-linecap="round" stroke-linejoin="round"/>
</svg>
