<svg width="30" height="30" viewBox="0 0 30 30" fill="none" xmlns="http://www.w3.org/2000/svg">
<path fill-rule="evenodd" clip-rule="evenodd" d="M2.04064 2.04064C0 4.08128 0 7.36563 0 13.9344V15.0956C0 21.6643 0 24.9486 2.04064 26.9893C4.08128 29.03 7.36563 29.03 13.9344 29.03H15.0956C21.6643 29.03 24.9486 29.03 26.9893 26.9893C29.03 24.9486 29.03 21.6643 29.03 15.0956V13.9344C29.03 7.36563 29.03 4.08128 26.9893 2.04064C24.9486 0 21.6643 0 15.0956 0H13.9344C7.36563 0 4.08128 0 2.04064 2.04064ZM4.64479 8.70899C4.80508 16.3248 8.65199 20.9016 15.3965 20.9016H15.7789V16.5445C18.2572 16.7886 20.1312 18.5827 20.8833 20.9016H24.3852C23.4234 17.4354 20.8956 15.5193 19.3174 14.787C20.8956 13.8838 23.115 11.687 23.6452 8.70899H20.464C19.7735 11.1255 17.727 13.3224 15.7789 13.5299V8.70899H12.5976V17.1547C10.6248 16.6665 8.13419 14.2988 8.02322 8.70899H4.64479Z" fill="#7FC1FF"/>
</svg>
